<svg width="21" height="21" viewBox="0 0 21 21" fill="none" xmlns="http://www.w3.org/2000/svg">
<g clip-path="url(#clip0_98_480)">
<path d="M7.02698 1.26222C7.01303 1.34814 7.0066 1.4351 7.00773 1.52211L7.00773 16.3372L6.85747 16.0141C6.70802 15.6984 6.50461 15.4111 6.25646 15.1652L2.10194 11.0107C1.57962 10.4635 0.739368 10.3716 0.111072 10.7928C-0.558449 11.2831 -0.70382 12.2232 -0.21357 12.8928C-0.17394 12.9469 -0.130742 12.9983 -0.0842575 13.0466L7.42844 20.5593C8.0149 21.1464 8.96624 21.147 9.55336 20.5605C9.55373 20.5601 9.55415 20.5597 9.55453 20.5593L17.0672 13.0466C17.6532 12.459 17.6519 11.5077 17.0643 10.9217C17.018 10.8756 16.9688 10.8325 16.917 10.7928C16.2887 10.3716 15.4484 10.4635 14.9261 11.0107L10.7641 15.1577C10.5434 15.3781 10.3583 15.6316 10.2156 15.909L10.0128 16.3597L10.0128 1.6048C10.0413 0.837233 9.50513 0.163813 8.75067 0.0196152C7.93155 -0.113218 7.15986 0.443098 7.02698 1.26222Z" fill="#D80027"/>
</g>
<defs>
<clipPath id="clip0_98_480">
<rect width="21" height="21" fill="white" transform="matrix(0 -1 1 0 0 21)"/>
</clipPath>
</defs>
</svg>
