<svg width="21" height="21" viewBox="0 0 21 21" fill="none" xmlns="http://www.w3.org/2000/svg">
<g clip-path="url(#clip0_96_469)">
<path d="M1.26222 13.973C1.34814 13.987 1.4351 13.9934 1.52211 13.9923L16.3372 13.9923L16.0141 14.1425C15.6984 14.292 15.4111 14.4954 15.1652 14.7435L11.0107 18.8981C10.4635 19.4204 10.3716 20.2606 10.7928 20.8889C11.2831 21.5584 12.2232 21.7038 12.8928 21.2136C12.9469 21.1739 12.9983 21.1307 13.0466 21.0843L20.5593 13.5716C21.1464 12.9851 21.147 12.0338 20.5605 11.4466C20.5601 11.4463 20.5597 11.4458 20.5593 11.4455L13.0466 3.93278C12.459 3.34683 11.5077 3.34815 10.9217 3.93573C10.8756 3.98198 10.8325 4.03119 10.7928 4.08303C10.3716 4.71133 10.4635 5.55157 11.0107 6.07389L15.1577 10.2359C15.3781 10.4566 15.6316 10.6417 15.909 10.7844L16.3597 10.9872L1.60479 10.9872C0.837232 10.9587 0.163813 11.4949 0.0196161 12.2493C-0.113218 13.0684 0.443098 13.8401 1.26222 13.973Z" fill="#D80027"/>
</g>
<defs>
<clipPath id="clip0_96_469">
<rect width="21" height="21" fill="white" transform="matrix(-1 0 0 -1 21 21)"/>
</clipPath>
</defs>
</svg>
