<svg width="53" height="60" viewBox="0 0 53 60" fill="none" xmlns="http://www.w3.org/2000/svg">
<path d="M4.81286 54.0021L0 0H52.9029L48.0836 53.9936L26.4193 60L4.81286 54.0021Z" fill="#1572B6"/>
<path d="M26.4521 55.4101L43.9593 50.5565L48.0779 4.4165H26.4521V55.4101Z" fill="#33A9DC"/>
<path d="M26.4521 23.9809H35.2164L35.8207 17.1988H26.4521V10.5752H26.4757H43.0593L42.9007 12.3516L41.2743 30.6045H26.4521V23.9809Z" fill="white"/>
<path d="M26.4932 41.1815L26.4632 41.19L19.0875 39.1972L18.6161 33.915H15.0311H11.9668L12.8947 44.3143L26.4611 48.0815L26.4932 48.0729V41.1815Z" fill="#EBEBEB"/>
<path d="M34.6523 30.3237L33.8552 39.193L26.4688 41.1859V48.0773L40.0459 44.3144L40.1466 43.1959L41.2973 30.3237H34.6523Z" fill="white"/>
<path d="M26.474 10.5752V14.6895V17.1816V17.1988H10.4968H10.4754L10.3426 15.7095L10.0404 12.3516L9.88184 10.5752H26.474Z" fill="#EBEBEB"/>
<path d="M26.4512 23.9805V28.0948V30.5869V30.604H19.189H19.1676L19.0347 29.1148L18.7347 25.7569L18.5762 23.9805H26.4512Z" fill="#EBEBEB"/>
</svg>
