<svg width="60" height="60" viewBox="0 0 60 60" fill="none" xmlns="http://www.w3.org/2000/svg">
<path fill-rule="evenodd" clip-rule="evenodd" d="M60 30C60 35.9334 58.2405 41.7336 54.9441 46.6671C51.6476 51.6006 46.9623 55.4457 41.4805 57.7164C35.9987 59.987 29.9667 60.5811 24.1473 59.4235C18.3279 58.266 12.9824 55.4088 8.78681 51.2132C4.59123 47.0176 1.73401 41.6721 0.576455 35.8527C-0.581101 30.0333 0.0129984 24.0013 2.28363 18.5195C4.55426 13.0377 8.39943 8.35235 13.3329 5.05591C18.2664 1.75947 24.0666 0 30 0C37.9565 0 45.5871 3.1607 51.2132 8.78679C56.8393 14.4129 60 22.0435 60 30Z" fill="#E1E1E1"/>
<path fill-rule="evenodd" clip-rule="evenodd" d="M37.1797 50.2855C37.2556 49.268 37.1132 48.246 36.7618 47.2881C36.4105 46.3301 35.8584 45.4584 35.1425 44.7313C41.8254 43.9884 48.8397 41.4513 48.8397 29.9284C48.8872 26.9477 47.7829 24.0636 45.7568 21.877C46.6717 19.2887 46.5644 16.4488 45.4568 13.937C45.4568 13.937 42.9425 13.1313 37.2168 17.0141C32.3 15.6655 27.1108 15.6655 22.1939 17.0141C16.4654 13.1313 13.9454 13.937 13.9454 13.937C12.8441 16.4511 12.742 19.2902 13.6597 21.877C11.6364 24.0601 10.5305 26.9379 10.5711 29.9141C10.5711 41.4084 17.5739 43.9827 24.2368 44.7398C23.1472 45.8049 22.4718 47.2227 22.3311 48.7398C21.5953 49.154 20.7847 49.4181 19.9462 49.5169C19.1077 49.6156 18.2579 49.547 17.4461 49.315C16.6342 49.083 15.8765 48.6923 15.2167 48.1654C14.557 47.6385 14.0083 46.986 13.6025 46.2455C13.1218 45.4146 12.4579 44.7042 11.6613 44.1685C10.8646 43.6328 9.95629 43.2859 9.00538 43.1541C9.00538 43.1541 6.0768 43.117 8.79966 44.9798C10.398 45.9972 11.5797 47.5529 12.1311 49.3655C12.1311 49.3655 13.8911 55.2027 22.2368 53.3884C22.2368 55.8913 22.2768 57.7798 22.2768 58.4913C22.2717 58.6634 22.2408 58.8339 22.1854 58.997C27.1174 60.3189 32.3105 60.3189 37.2425 58.997C37.1852 58.838 37.1515 58.6714 37.1425 58.5027C37.1425 57.5198 37.1797 54.2855 37.1797 50.2855Z" fill="#333333"/>
</svg>
