<svg width="53" height="60" viewBox="0 0 53 60" fill="none" xmlns="http://www.w3.org/2000/svg">
<path d="M4.815 54.0021L0 0H52.9071L48.0857 53.9936L26.4214 60L4.815 54.0021Z" fill="#E44F26"/>
<path d="M26.4531 55.4096L43.9603 50.556L48.0788 4.41602H26.4531V55.4096Z" fill="#F1662A"/>
<path d="M26.4538 24.4438H17.6895L17.0853 17.6617H26.4538V11.0381H26.4303H9.84668L10.0053 12.8167L11.6317 31.0674H26.4538V24.4438Z" fill="#EBEBEB"/>
<path d="M26.4532 41.6442L26.4232 41.6527L19.0475 39.662L18.576 34.3799H14.991H11.9268L12.8546 44.777L26.4232 48.5442L26.4532 48.5356V41.6442Z" fill="#EBEBEB"/>
<path d="M26.4307 24.4434V31.0669H34.5864L33.8192 39.6576L26.4307 41.6505V48.5419L40.0099 44.7769L40.1085 43.6584L41.6642 26.2219L41.8271 24.4434H40.0421H26.4307Z" fill="white"/>
<path d="M26.4307 11.0378V15.1521V17.6464V17.6614H42.4078H42.4292L42.5621 16.1743L42.8642 12.8164L43.0228 11.0378H26.4307Z" fill="white"/>
</svg>
