<svg width="60" height="60" viewBox="0 0 60 60" fill="none" xmlns="http://www.w3.org/2000/svg">
<circle cx="30" cy="30" r="30" fill="#E1E1E1"/>
<g clip-path="url(#clip0_96_103)">
<path d="M38.8191 38.8233V38.8225H38.824V31.7033C38.824 28.2205 38.0742 25.5376 34.0026 25.5376C32.0452 25.5376 30.7317 26.6117 30.1955 27.63H30.1388V25.8627H26.2783V38.8225H30.2982V32.4053C30.2982 30.7157 30.6185 29.0819 32.7109 29.0819C34.7726 29.0819 34.8033 31.0101 34.8033 32.5137V38.8233H38.8191Z" fill="#526EB6"/>
<path d="M19.7324 25.8638H23.7571V38.8236H19.7324V25.8638Z" fill="#526EB6"/>
<path d="M21.7431 19.4116C20.4563 19.4116 19.4121 20.4558 19.4121 21.7427C19.4121 23.0295 20.4563 24.0955 21.7431 24.0955C23.03 24.0955 24.0742 23.0295 24.0742 21.7427C24.0734 20.4558 23.0292 19.4116 21.7431 19.4116V19.4116Z" fill="#526EB6"/>
</g>
<defs>
<clipPath id="clip0_96_103">
<rect width="19.4118" height="19.4118" fill="white" transform="translate(19.4121 19.4116)"/>
</clipPath>
</defs>
</svg>
