<svg width="60" height="60" viewBox="0 0 60 60" fill="none" xmlns="http://www.w3.org/2000/svg">
<path d="M37.1387 12.7222V24.4586L41.2444 27.0407C41.3926 27.0733 41.5462 27.0733 41.6944 27.0407L59.3472 15.1393C59.3344 14.5617 59.123 14.0061 58.7488 13.566C58.3746 13.1258 57.8603 12.8278 57.2922 12.7222H37.1387Z" fill="#0072C6"/>
<path d="M37.1379 28.8357L40.8815 31.4071C41.0567 31.5138 41.258 31.5703 41.4632 31.5703C41.6685 31.5703 41.8697 31.5138 42.045 31.4071C41.4022 31.795 59.3443 19.8828 59.3443 19.8828V41.4528C59.3911 41.8899 59.3418 42.3319 59.1999 42.748C59.058 43.164 58.8269 43.544 58.5228 43.8614C58.2187 44.1788 57.8489 44.4259 57.4393 44.5854C57.0297 44.745 56.5901 44.8131 56.1515 44.785H37.1357L37.1379 28.8357Z" fill="#0072C6"/>
<path d="M17.7585 23.4259C17.1365 23.4229 16.5252 23.5882 15.9895 23.9044C15.4538 24.2205 15.0137 24.6757 14.7156 25.2216C13.9016 26.6688 13.511 28.3158 13.5885 29.9745C13.5039 31.6297 13.895 33.2745 14.7156 34.7145C15.0124 35.238 15.4418 35.6741 15.9605 35.9791C16.4793 36.2841 17.0692 36.4471 17.6709 36.4519C18.2727 36.4567 18.8651 36.303 19.3886 36.0063C19.9122 35.7096 20.3484 35.2803 20.6535 34.7616C21.4651 33.3283 21.8482 31.692 21.757 30.0473C21.85 28.351 21.4796 26.6614 20.6856 25.1595C20.4019 24.6313 19.9792 24.1907 19.4634 23.8852C18.9475 23.5797 18.358 23.4209 17.7585 23.4259Z" fill="#0072C6"/>
<path d="M0 6.76071V52.6757L34.9286 60V0L0 6.76071ZM23.3743 37.4807C22.7209 38.4018 21.8521 39.1491 20.8436 39.6575C19.8352 40.1658 18.7177 40.4198 17.5886 40.3971C16.4879 40.4167 15.3988 40.1701 14.4138 39.6784C13.4289 39.1867 12.5773 38.4644 11.9314 37.5729C10.3997 35.4343 9.63344 32.8419 9.75643 30.2143C9.62613 27.4578 10.4062 24.735 11.9764 22.4657C12.6381 21.527 13.5205 20.7655 14.5459 20.2483C15.5713 19.7311 16.7083 19.4741 17.8564 19.5C18.9491 19.4781 20.0305 19.7247 21.0057 20.2183C21.9808 20.7118 22.8199 21.4372 23.4493 22.3307C24.9657 24.5156 25.7189 27.1398 25.5921 29.7964C25.7257 32.533 24.9455 35.2362 23.3743 37.4807Z" fill="#0072C6"/>
</svg>
