<svg width="1094" height="1094" viewBox="0 0 1094 1094" fill="none" xmlns="http://www.w3.org/2000/svg">
<path d="M868.696 15H224.68C108.877 15 15 108.877 15 224.68V868.696C15 984.498 108.877 1078.38 224.68 1078.38H868.696C984.498 1078.38 1078.38 984.498 1078.38 868.696V224.68C1078.38 108.877 984.498 15 868.696 15Z" fill="white" stroke="#134514" stroke-width="29.9542"/>
<path d="M561.584 924.534L541.389 917.631C541.389 917.631 543.855 814.672 506.902 807.284C482.275 778.707 510.852 -404.63 599.525 803.339C599.525 803.339 568.978 818.607 563.559 844.723C557.644 870.342 561.584 924.534 561.584 924.534Z" fill="#A6A385"/>
<path d="M572.424 825.018C572.424 825.018 749.289 708.75 707.9 466.856C667.999 290.989 573.903 233.349 563.557 211.178C552.228 195.414 541.386 167.83 541.386 167.83L548.78 657.02C548.78 657.516 533.501 806.781 572.424 825.018Z" fill="#499D4A"/>
<path d="M531.046 831.419C531.046 831.419 365.018 718.109 374.873 518.593C384.231 319.071 501.481 221.034 524.143 203.3C538.925 187.535 539.417 181.62 540.404 165.855C550.75 188.026 548.78 497.409 550.254 533.861C554.685 674.264 542.374 804.823 531.046 831.419Z" fill="#58AA50"/>
</svg>
