<svg width="54" height="60" viewBox="0 0 54 60" fill="none" xmlns="http://www.w3.org/2000/svg">
<path d="M26.604 60C25.7945 60.0003 24.9993 59.7874 24.2982 59.3828L16.961 55.0392C15.8659 54.4263 16.3995 54.2099 16.7617 54.0835C17.9263 53.7237 19.0414 53.2198 20.081 52.5835C20.168 52.5432 20.2639 52.5258 20.3595 52.5329C20.4551 52.5401 20.5473 52.5715 20.6274 52.6242L26.2654 55.9735C26.3704 56.0291 26.4873 56.0581 26.6061 56.0581C26.7249 56.0581 26.8418 56.0291 26.9468 55.9735L48.9328 43.2833C49.0357 43.2217 49.1208 43.1344 49.1798 43.0299C49.2388 42.9255 49.2696 42.8076 49.2693 42.6876V17.303C49.2693 17.1811 49.238 17.0613 49.1783 16.9551C49.1187 16.8489 49.0326 16.7598 48.9285 16.6965L26.9425 4.01708C26.8389 3.95869 26.7219 3.92801 26.6029 3.92801C26.4839 3.92801 26.3669 3.95869 26.2632 4.01708L4.29007 16.7008C4.18526 16.7628 4.09823 16.8508 4.03741 16.9563C3.9766 17.0618 3.94405 17.1812 3.94293 17.303V42.6769C3.94323 42.7966 3.97533 42.914 4.03596 43.0172C4.09658 43.1203 4.18354 43.2056 4.28793 43.2641L10.318 46.7441C13.5859 48.377 15.5874 46.4527 15.5874 44.5198V19.4673C15.5874 19.3829 15.604 19.2993 15.6363 19.2213C15.6686 19.1433 15.716 19.0724 15.7757 19.0127C15.8354 18.953 15.9062 18.9057 15.9842 18.8734C16.0622 18.8411 16.1458 18.8244 16.2302 18.8244H19.016C19.1865 18.8244 19.35 18.8922 19.4706 19.0127C19.5911 19.1333 19.6589 19.2968 19.6589 19.4673V44.5219C19.6589 48.8827 17.2845 51.3792 13.1488 51.3792C11.3646 51.4102 9.60831 50.9331 8.08513 50.0034L2.30576 46.6884C1.60415 46.2798 1.02199 45.6943 0.617397 44.9904C0.2128 44.2865 -7.76722e-05 43.4888 1.52398e-05 42.6769V17.303C-0.00207019 16.4898 0.209907 15.6904 0.614646 14.9851C1.01938 14.2799 1.60263 13.6935 2.30576 13.2851L24.2939 0.590604C25.0022 0.2031 25.7966 0 26.604 0C27.4113 0 28.2057 0.2031 28.914 0.590604L50.9 13.2851C51.6015 13.6928 52.1838 14.2775 52.5888 14.9806C52.9938 15.6838 53.2072 16.4808 53.2079 17.2923V42.6769C53.2067 43.4888 52.993 44.2862 52.5882 44.99C52.1833 45.6937 51.6013 46.2793 50.9 46.6884L28.914 59.3828C28.2116 59.7881 27.4148 60.001 26.604 60Z" fill="#83CD29"/>
<path d="M22.4336 34.1846C22.4336 34.0141 22.5013 33.8506 22.6219 33.73C22.7424 33.6094 22.906 33.5417 23.0765 33.5417H25.9201C26.072 33.5422 26.2189 33.5965 26.3346 33.6949C26.4503 33.7934 26.5274 33.9297 26.5522 34.0796C26.9808 36.9746 28.2665 38.4339 34.0802 38.4339C38.711 38.4339 40.6846 37.386 40.6846 34.9281C40.6846 33.5117 40.1253 32.4595 32.9273 31.7545C26.9101 31.1588 23.19 29.8259 23.19 25.0173C23.19 20.5815 26.9294 17.9351 33.1973 17.9351C40.241 17.9351 43.7275 20.3801 44.1689 25.6259C44.1756 25.7135 44.1644 25.8015 44.1358 25.8845C44.1072 25.9676 44.0618 26.0439 44.0026 26.1088C43.9434 26.1736 43.8715 26.2256 43.7913 26.2616C43.7112 26.2976 43.6246 26.3168 43.5367 26.318H40.6738C40.5302 26.316 40.3914 26.266 40.2796 26.1759C40.1677 26.0858 40.0892 25.9608 40.0567 25.8209C39.3731 22.7758 37.6995 21.803 33.1995 21.803C28.1422 21.803 27.5551 23.5644 27.5551 24.8844C27.5551 26.483 28.2494 26.9502 35.0766 27.8523C41.8331 28.7459 45.0432 30.0102 45.0432 34.7589C45.0432 39.5504 41.0488 42.2933 34.0823 42.2933C24.4501 42.3061 22.4336 37.8896 22.4336 34.1846Z" fill="#83CD29"/>
</svg>
