<svg width="59" height="60" viewBox="0 0 59 60" fill="none" xmlns="http://www.w3.org/2000/svg">
<path d="M58.0437 35.9472C57.8628 35.4205 57.5366 34.9558 57.1028 34.6065C56.6691 34.2573 56.1454 34.0379 55.5922 33.9735C54.9387 33.895 54.2765 33.9319 53.6358 34.0828C52.6448 34.3017 51.6367 34.4344 50.6229 34.4793C53.3341 29.9051 55.4049 24.9804 56.7773 19.8432C58.8195 11.9381 57.7287 8.33798 56.4537 6.70723C54.7605 4.56508 52.5935 2.84485 50.1231 1.68177C47.6526 0.518692 44.9461 -0.0555352 42.2162 0.00423024C39.712 -0.0192323 37.2181 0.330322 34.8168 1.0414C33.3865 0.796183 31.9391 0.664342 30.4881 0.647101C27.8507 0.546965 25.2383 1.19079 22.9494 2.505C21.2135 1.9181 19.4335 1.47095 17.6264 1.16783C15.5198 0.662453 13.3342 0.577204 11.1946 0.916951C9.055 1.2567 7.00333 2.01478 5.15686 3.14787C1.44107 5.77078 -0.281828 10.3309 0.0374642 16.7017C0.609148 21.4545 1.61772 26.1444 3.05039 30.712C3.87548 33.5651 4.96152 36.3362 6.29474 38.9901C7.27936 41.4111 9.15112 43.3649 11.5277 44.4523C12.3989 44.7394 13.3309 44.7882 14.2273 44.5938C15.1237 44.3994 15.9517 43.9688 16.6257 43.3466C16.9316 43.7088 17.2933 44.0198 17.6971 44.2681C18.3231 44.6565 19.0055 44.9457 19.72 45.1252C22.0589 45.7767 24.5486 45.6258 26.7916 44.6966C26.8045 45.0631 26.8152 45.4145 26.8216 45.7188C26.8345 46.2095 26.8495 46.6917 26.8666 47.1438C26.8412 49.5341 27.1594 51.9157 27.8116 54.2154C27.8459 54.3076 27.8909 54.4447 27.9381 54.5926C28.3145 56.0001 29.0457 57.2876 30.0617 58.3319C31.2799 59.4505 32.8873 60.0481 34.5404 59.997C35.2445 59.9925 35.9462 59.9142 36.634 59.7634C37.9378 59.5997 39.1956 59.1765 40.3333 58.5188C41.4709 57.8611 42.4652 56.9822 43.2577 55.934C44.9956 53.459 45.842 49.7325 45.9942 43.8588C46.0135 43.6916 46.0328 43.533 46.0499 43.383L46.0863 43.0723L46.4956 43.1087H46.6006C48.918 43.2069 51.2294 42.8064 53.3786 41.9344C54.7308 41.3066 59.0659 39.0179 58.0437 35.9343" fill="black"/>
<path d="M54.1484 36.5471C47.3704 37.9443 46.9054 35.6513 46.9054 35.6513C54.0606 25.0333 57.0521 11.5544 54.4699 8.25646C47.4283 -0.743732 35.2373 3.51422 35.0337 3.62351L34.9673 3.63636C33.4783 3.33752 31.9644 3.17968 30.4458 3.16492C27.8848 3.03643 25.3575 3.79308 23.2885 5.30783C23.2885 5.30783 1.5423 -3.65165 2.55375 16.5752C2.76804 20.8782 8.72103 49.1345 15.8205 40.5993C18.4155 37.4792 20.9227 34.8392 20.9227 34.8392C22.1854 35.6914 23.7047 36.0792 25.2214 35.9364L25.3435 35.8335C25.3077 36.2389 25.3242 36.6473 25.3928 37.0485C23.5628 39.0928 24.1071 39.4507 20.4449 40.2029C16.7462 40.9658 18.9191 42.3222 20.3377 42.6779C21.8449 43.1655 23.4677 43.1645 24.9743 42.675C26.4809 42.1854 27.7944 41.2325 28.7272 39.9522L28.62 40.3807C29.3358 40.955 29.8393 44.1137 29.7558 46.9787C29.522 49.1096 29.6671 51.265 30.1844 53.3453C30.7501 54.8818 31.3115 58.3361 36.1181 57.3075C37.8272 57.1387 39.417 56.3549 40.5916 55.1018C41.7662 53.8488 42.4457 52.2118 42.5039 50.4952C42.7182 47.8509 43.1746 48.2409 43.2025 45.8773L43.5754 44.7587C44.0039 41.1736 43.6439 40.0164 46.1168 40.5543L46.719 40.6079C48.6322 40.6883 50.5411 40.3671 52.3227 39.665C55.3356 38.2678 57.1207 35.9321 54.1506 36.5471" fill="#336791"/>
<path d="M24.561 18.4997C24.0694 18.3963 23.557 18.4723 23.1166 18.714C23.0593 18.7553 23.0107 18.8077 22.9739 18.868C22.9371 18.9284 22.9128 18.9955 22.9023 19.0654C22.9024 19.3125 22.9914 19.5514 23.1531 19.7383C23.4406 20.1332 23.8699 20.4012 24.3509 20.4862C24.4149 20.495 24.4793 20.4993 24.5438 20.499C24.8622 20.5032 25.1741 20.4094 25.4374 20.2304C25.7007 20.0514 25.9027 19.7958 26.016 19.4983C26.091 18.9668 25.3174 18.6111 24.5674 18.5061M44.8007 18.5233C44.7428 18.1054 43.9992 17.9875 43.3006 18.0947C42.6021 18.2018 41.9142 18.5104 41.972 18.9283C42.081 19.1904 42.2656 19.4142 42.5022 19.571C42.7388 19.7279 43.0168 19.8107 43.3006 19.809C43.3602 19.8089 43.4196 19.8046 43.4785 19.7961C43.8501 19.7309 44.1898 19.5448 44.445 19.2669C44.6583 19.0795 44.7885 18.8151 44.8071 18.5318" fill="white"/>
<path d="M56.4021 36.3887C56.1428 35.6066 55.3114 35.3558 53.9292 35.6409C49.8256 36.498 48.3577 35.9001 47.8734 35.5466C51.123 30.5581 53.5625 25.0867 55.1014 19.3355C55.7243 17.0606 56.0838 14.7216 56.1728 12.3646C56.338 10.716 55.9546 9.05884 55.0821 7.65024C53.5377 5.7065 51.5629 4.14797 49.3135 3.09746C47.0641 2.04694 44.6015 1.53314 42.1197 1.59654C39.5704 1.55665 37.0332 1.95606 34.6195 2.77728C33.239 2.43664 31.8241 2.25474 30.4023 2.23512C27.8443 2.12272 25.3159 2.8193 23.1764 4.22588C21.2719 3.52958 19.306 3.01443 17.3048 2.68728C13.4794 1.76152 9.44316 2.38135 6.07175 4.41231C2.85739 6.69236 1.35736 10.7682 1.65522 16.5261C2.21811 21.1409 3.20297 25.6944 4.59743 30.1293C6.89034 37.6402 9.38253 41.8938 12.0054 42.7724C12.3445 42.8867 12.6998 42.9453 13.0576 42.946C13.7234 42.9048 14.3711 42.7124 14.9515 42.3834C15.5318 42.0544 16.0296 41.5975 16.407 41.0474C17.8956 39.2616 19.4349 37.5202 21.0249 35.823C22.0471 36.3762 23.1847 36.6822 24.3464 36.7166V36.8066C24.1464 37.0437 23.9514 37.2852 23.7614 37.5309C22.9578 38.5488 22.7928 38.7609 20.2085 39.2945C19.4735 39.4466 17.5213 39.8495 17.4934 41.2231C17.4634 42.7231 19.8013 43.3467 20.0649 43.4132C20.9395 43.6381 21.8384 43.7547 22.7414 43.7603C24.7164 43.7968 26.6314 43.0813 28.0987 41.7588C27.8795 45.837 28.1537 49.9267 28.9151 53.9391C29.2669 55.2237 30.0284 56.3582 31.084 57.1705C32.1395 57.9827 33.4313 58.4282 34.7631 58.4392C35.4238 58.4372 36.0825 58.3653 36.7281 58.2249C38.491 58.0727 40.1414 57.2953 41.3816 56.0332C42.6217 54.771 43.3699 53.1072 43.4911 51.3419C43.8704 49.1433 44.5219 43.8953 44.8283 41.0795C45.6027 41.2924 46.404 41.3913 47.2069 41.3731C49.0562 41.3865 50.8901 41.037 52.6049 40.3445C54.1306 39.6352 56.8907 37.8995 56.3828 36.3887H56.4021ZM46.3519 17.3619C46.3244 18.1574 46.2414 18.9501 46.1033 19.7341C45.944 20.6553 45.8438 21.5858 45.8033 22.5199C45.7961 23.5737 45.8677 24.6267 46.0176 25.6699C46.4805 27.8051 46.3099 30.029 45.5269 32.0686C45.3606 31.7736 45.2124 31.4688 45.0833 31.1558C44.959 30.8536 44.6869 30.3672 44.314 29.6964C42.8568 27.0821 39.441 20.9577 41.1897 18.459C41.7104 17.7155 43.0325 16.959 46.3498 17.3619H46.3519ZM42.3297 3.28515C44.5231 3.2403 46.6971 3.70505 48.6805 4.64284C50.6639 5.58062 52.4026 6.96586 53.7599 8.68955C55.8493 11.3575 53.5456 23.5013 46.8919 33.9758L46.6905 33.7208L46.6069 33.6158C47.9288 31.1179 48.3134 28.2295 47.6912 25.4728C47.548 24.5137 47.4763 23.5453 47.4769 22.5756C47.5158 21.709 47.6095 20.8459 47.7577 19.9912C47.9505 18.936 48.0387 17.8644 48.0212 16.7919C48.0561 16.6446 48.0655 16.4924 48.0491 16.3419C47.339 13.4724 45.9317 10.8225 43.9519 8.62741C42.1729 6.5311 39.9479 4.85888 37.4396 3.73301C39.0459 3.39806 40.6848 3.24424 42.3254 3.27443L42.3297 3.28515ZM15.1255 39.9781C13.7819 41.5938 12.8519 41.2853 12.554 41.1824C10.5654 40.5181 8.25537 36.3137 6.22175 29.645C4.87146 25.3404 3.91044 20.9233 3.35026 16.4469C3.09311 11.3039 4.34028 7.71667 7.05748 5.78806C11.4783 2.65299 18.7492 4.53017 21.6699 5.48162C21.6271 5.52234 21.5842 5.56091 21.5435 5.60377C16.7498 10.4446 16.8634 18.7162 16.8763 19.2219C16.8763 19.4169 16.8913 19.6934 16.9148 20.0791C17.0906 22.3834 17.0324 24.6995 16.7413 26.9921C16.542 28.3048 16.6444 29.6456 17.0406 30.9128C17.4367 32.18 18.1163 33.3404 19.0277 34.3058C19.2177 34.503 19.4163 34.6901 19.6235 34.8673C18.8027 35.7458 17.0177 37.6916 15.1234 39.9781H15.1255ZM20.2471 33.1422C19.508 32.3609 18.957 31.4213 18.6358 30.3949C18.3146 29.3686 18.2317 28.2825 18.3934 27.2192C18.7006 24.8167 18.7631 22.3892 18.5799 19.9741C18.567 19.7705 18.5563 19.5926 18.5499 19.4534C20.3449 18.1005 22.5726 17.4504 24.8136 17.6255C25.3292 17.7423 25.7956 18.0168 26.1481 18.4108C26.5006 18.8048 26.7218 19.2987 26.7808 19.8241C28.1651 26.2292 26.9629 28.8971 25.9986 31.0422C25.7993 31.4836 25.6107 31.8993 25.4522 32.3279L25.3279 32.6622C25.0199 33.4387 24.7566 34.2321 24.5393 35.0387C23.7337 35.0272 22.9387 34.8529 22.2021 34.5263C21.4656 34.1996 20.8028 33.7274 20.2535 33.1379L20.2471 33.1422ZM20.4892 41.7781C20.0916 41.6803 19.7129 41.5174 19.3685 41.296C19.7515 41.1323 20.1519 41.013 20.5621 40.9403C23.6007 40.3145 24.07 39.8688 25.0964 38.5723C25.3322 38.2745 25.5979 37.9295 25.9665 37.5245C26.515 36.9095 26.7679 37.0145 27.2222 37.203C27.4377 37.32 27.6266 37.4804 27.7771 37.674C27.9276 37.8677 28.0363 38.0903 28.0965 38.3281C28.1564 38.5006 28.1778 38.6842 28.1593 38.866C28.1408 39.0477 28.0828 39.2232 27.9894 39.3802C27.1587 40.5273 25.9831 41.3789 24.6342 41.8106C23.2853 42.2424 21.8337 42.2318 20.4913 41.7803L20.4892 41.7781ZM36.3981 56.577C35.7967 56.7861 35.158 56.866 34.5236 56.8115C33.8893 56.757 33.2735 56.5694 32.7166 56.2608C32.1597 55.9522 31.6741 55.5296 31.2916 55.0206C30.909 54.5116 30.6381 53.9277 30.4966 53.3069C29.7419 48.4505 29.5263 43.5255 29.8537 38.6216C29.8559 38.5317 29.8436 38.442 29.8173 38.3559C29.7948 38.1894 29.7604 38.0247 29.7144 37.863C29.5875 37.381 29.3562 36.9327 29.037 36.5499C28.7179 36.167 28.3185 35.8589 27.8672 35.6473C27.3411 35.3864 26.7423 35.3109 26.1679 35.433C26.3709 34.6898 26.6156 33.9586 26.9008 33.2429L27.0251 32.9065C27.1665 32.5272 27.3422 32.1351 27.5286 31.7193C28.5379 29.4757 29.9223 26.4007 28.4201 19.4576C28.325 18.8671 28.11 18.3022 27.7882 17.7979C27.4665 17.2936 27.0449 16.8605 26.5493 16.5254C26.0538 16.1903 25.4949 15.9603 24.9071 15.8495C24.3192 15.7387 23.7149 15.7494 23.1314 15.8811C21.72 16.0642 20.3514 16.4928 19.0877 17.1476C18.9206 17.2333 18.7663 17.3147 18.6249 17.394C18.7869 13.5003 20.232 9.76942 22.735 6.78237C23.7403 5.79852 24.9401 5.03563 26.2576 4.54261C27.575 4.04959 28.9809 3.83734 30.3851 3.91945C32.7574 3.94004 35.0963 4.48093 37.2368 5.50396C39.3773 6.527 41.2672 8.00724 42.7733 9.84029C44.2431 11.5566 45.3915 13.5238 46.1633 15.6476C43.0283 15.3283 40.8961 15.9476 39.816 17.4926C37.4589 20.8527 41.1018 27.3757 42.8504 30.5107C43.1718 31.085 43.4483 31.5822 43.534 31.7965C43.9958 32.8745 44.6178 33.8766 45.379 34.7687C45.544 34.983 45.7047 35.1737 45.8247 35.3494C44.8754 35.6237 43.1697 36.2559 43.3261 39.4209C43.2018 41.0067 42.3104 48.4318 41.8561 51.0569C41.2582 54.522 39.9832 55.8141 36.396 56.5834L36.3981 56.577ZM51.917 38.8166C50.5978 39.34 49.1976 39.63 47.7791 39.6738C46.8352 39.8128 45.8714 39.689 44.9933 39.3159C44.8969 37.3466 45.6362 37.1409 46.4076 36.9223C46.5298 36.888 46.6476 36.8537 46.7633 36.8152C46.839 36.8762 46.9177 36.9334 46.9991 36.9866C48.3684 37.8909 50.8134 37.9873 54.2635 37.2759H54.3021C53.5889 37.91 52.7823 38.4304 51.9106 38.8188L51.917 38.8166Z" fill="white"/>
</svg>
