<svg width="68" height="60" viewBox="0 0 68 60" fill="none" xmlns="http://www.w3.org/2000/svg">
<path d="M33.7148 35.9598C37.0398 35.9598 39.7352 33.2644 39.7352 29.9394C39.7352 26.6144 37.0398 23.9189 33.7148 23.9189C30.3898 23.9189 27.6943 26.6144 27.6943 29.9394C27.6943 33.2644 30.3898 35.9598 33.7148 35.9598Z" fill="#00D8FF"/>
<path d="M33.7144 43.7432C26.4782 43.9183 19.2601 42.9429 12.3298 40.8534C9.12847 39.8386 6.14261 38.2399 3.52316 36.1382C2.5236 35.4202 1.69119 34.4945 1.08306 33.4246C0.474922 32.3546 0.105453 31.1658 0 29.9396C0 25.9589 4.37324 22.0576 11.6989 19.505C18.8144 17.2431 26.2489 16.1469 33.7144 16.2588C41.0803 16.1558 48.4152 17.2323 55.441 19.4472C58.5241 20.4301 61.4087 21.9515 63.9611 23.9408C64.9435 24.6253 65.7635 25.5175 66.3627 26.5542C66.962 27.5908 67.326 28.7466 67.4288 29.9396C67.4288 34.0768 62.5402 38.2695 54.6655 40.8751C47.8695 42.8965 40.8037 43.8637 33.7144 43.7432ZM33.7144 19.1389C26.5721 19.0435 19.46 20.0856 12.6453 22.2262C5.90243 24.579 2.88017 27.7963 2.88017 29.9324C2.88017 32.1671 6.1288 35.6807 13.2618 38.1201C19.8917 40.1089 26.7948 41.0347 33.7144 40.8631C40.4968 40.9843 47.2578 40.0666 53.7625 38.1418C61.1676 35.6879 64.539 32.1696 64.539 29.9396C64.4175 29.1743 64.1386 28.4426 63.72 27.7906C63.3014 27.1386 62.7521 26.5805 62.1068 26.1515C59.8232 24.3867 57.2464 23.0383 54.4945 22.1684C47.7734 20.0583 40.7583 19.0355 33.7144 19.1389Z" fill="#00D8FF"/>
<path d="M20.0354 59.967C18.912 59.9928 17.8018 59.7203 16.8181 59.1772C13.3696 57.188 12.1751 51.4517 13.6224 43.8299C15.2182 36.5358 17.9832 29.5477 21.8102 23.1364C25.4002 16.7045 29.996 10.8883 35.4236 5.90838C37.8153 3.72827 40.5744 1.98918 43.5729 0.771745C44.6574 0.263474 45.8405 0 47.0382 0C48.236 0 49.4191 0.263474 50.5036 0.771745C54.0894 2.83796 55.2766 9.16664 53.6029 17.2894C51.9579 24.1878 49.2647 30.7931 45.6174 36.8751C42.1538 43.2311 37.7027 48.9967 32.4303 53.9562C29.9517 56.2218 27.0753 58.0091 23.9463 59.2277C22.6936 59.6927 21.3714 59.9426 20.0354 59.967ZM24.3051 24.5669C20.6545 30.7061 18.0045 37.3873 16.4545 44.3597C15.1227 51.3795 16.4015 55.601 18.2606 56.6751C20.1871 57.7901 24.8638 56.7329 30.5423 51.772C35.5754 47.0206 39.8239 41.5017 43.1298 35.4205C46.6239 29.606 49.2073 23.2909 50.7902 16.6946C52.3651 9.04864 51.0045 4.36715 49.0732 3.25457C48.3493 2.97721 47.5757 2.85306 46.8014 2.88995C46.0271 2.92684 45.2689 3.12398 44.5747 3.4689C41.9057 4.57027 39.4519 6.13386 37.3261 8.08778C32.1405 12.8579 27.7504 18.4259 24.322 24.5814L24.3051 24.5669Z" fill="#00D8FF"/>
<path d="M47.3852 59.9984C44.1221 59.9984 39.9776 58.0237 35.6622 54.3127C30.1395 49.2875 25.4659 43.4022 21.8224 36.8847C18.0433 30.5617 15.3003 23.6748 13.6972 16.4851C13.002 13.3219 12.8732 10.0606 13.3167 6.85241C13.4193 5.6623 13.7817 4.50919 14.3783 3.47437C14.975 2.43956 15.7914 1.54824 16.7701 0.863279C20.351 -1.21016 26.4268 0.921075 32.6279 6.42616C37.7828 11.2959 42.1604 16.9275 45.6079 23.1244C49.3847 29.2998 52.1565 36.0359 53.8198 43.081C54.5449 46.3602 54.6568 49.7453 54.1497 53.0653C54.0291 54.2896 53.6451 55.4734 53.0241 56.5354C52.4031 57.5974 51.5597 58.5126 50.5519 59.2181C49.5842 59.7545 48.4913 60.0238 47.3852 59.9984ZM24.3149 35.435C27.8102 41.6636 32.2746 47.2961 37.5405 52.1212C42.9565 56.7811 47.2527 57.7829 49.0998 56.6968C51.0263 55.577 52.4471 51.0063 50.983 43.6108C49.3788 36.8846 46.7202 30.4547 43.1058 24.5597C39.8159 18.6287 35.6375 13.2361 30.7158 8.56943C24.8784 3.38704 20.1439 2.22871 18.215 3.34611C17.6137 3.83468 17.1204 4.4426 16.766 5.13149C16.4116 5.82038 16.2039 6.57527 16.156 7.34849C15.7731 10.2096 15.8978 13.1158 16.5244 15.9336C18.0664 22.8093 20.6972 29.3944 24.3173 35.4398L24.3149 35.435Z" fill="#00D8FF"/>
</svg>
