<svg width="67" height="40" viewBox="0 0 67 40" fill="none" xmlns="http://www.w3.org/2000/svg">
<path d="M16.6667 13.3333C18.8889 4.44444 24.4444 0 33.3333 0C46.6667 0 48.3333 10 55 11.6667C59.4445 12.7778 63.3333 11.1111 66.6667 6.66667C64.4445 15.5556 58.8889 20 50 20C36.6667 20 35 10 28.3333 8.33333C23.8889 7.22222 20 8.88889 16.6667 13.3333ZM0 33.3333C2.22222 24.4444 7.77778 20 16.6667 20C30 20 31.6667 30 38.3333 31.6667C42.7778 32.7778 46.6667 31.1111 50 26.6667C47.7778 35.5556 42.2222 40 33.3333 40C20 40 18.3333 30 11.6667 28.3333C7.22222 27.2222 3.33333 28.8889 0 33.3333Z" fill="#44A8B3"/>
</svg>
